<svg viewBox="0 0 384 384" xmlns="http://www.w3.org/2000/svg"><path d="m48.7 177.3a92.3 92.3 0 0 1 75.3-145.3 91.4 91.4 0 0 1 53.1 16.8 145.7 145.7 0 0 1 14.9-.8 144 144 0 0 1 144 144 145.7 145.7 0 0 1 -.8 15 92 92 0 0 1 -128.2 128.2 145.7 145.7 0 0 1 -15 .8 144 144 0 0 1 -144-144 145.7 145.7 0 0 1  .7-14.7z" stroke-miterlimit="10" stroke-width="16"/><path d="m128 232v4c0 24.3 28.7 44 64 44s64-19.7 64-44-28.7-44-64-44-64-19.7-64-44 28.7-44 64-44 64 19.7 64 44v4" fill="none" stroke="#ffffff" stroke-miterlimit="10" stroke-width="16"/></svg>