<svg enable-background="new 0 0 60 60" viewBox="0 0 60 60" xmlns="http://www.w3.org/2000/svg"><path d="m18 53.414-6-6v-34.414c0-2.206 1.794-4 4-4h4c2.206 0 4 1.794 4 4v34.414zm-4-6.828 4 4 4-4v-33.586c0-1.103-.897-2-2-2h-4c-1.103 0-2 .897-2 2z"/><path d="m13 16h7v2h-7z"/><path d="m8 48h-2v-30c0-2.206 1.794-4 4-4h3v2h-3c-1.103 0-2 .897-2 2z"/><path d="m54 48h-2v-30c0-1.103-.897-2-2-2h-2.003v-2h2.003c2.206 0 4 1.794 4 4z"/><path d="m52 57h-44c-3.309 0-6-2.691-6-6v-4h8v2h-6v2c0 2.206 1.794 4 4 4h44c2.206 0 4-1.794 4-4v-2h-30v-2h32v4c0 3.309-2.691 6-6 6z"/><path d="m27 51h6v2h-6z"/><path d="m46 45h-23v-2h23c .552 0 1-.448 1-1v-35c0-.552-.448-1-1-1h-27c-.552 0-1 .448-1 1v3h-2v-3c0-1.654 1.346-3 3-3h27c1.654 0 3 1.346 3 3v35c0 1.654-1.346 3-3 3z"/><path d="m45 8h-2v2h2z"/><path d="m41 8h-2v2h2z"/><path d="m28 24h-2v2h2z"/><path d="m28 28h-2v2h2z"/><path d="m37 8h-2v2h2z"/><path d="m26 12h22v2h-22z"/><path d="m26 20h18v2h-18z"/><path d="m32 24h12v2h-12z"/><path d="m32 28h12v2h-12z"/></svg>