<svg xmlns="http://www.w3.org/2000/svg" viewBox="0 0 115.73 60.39"><defs><style>.cls-1{fill:#fc0f49;}</style></defs><title>icon-Ресурс 1</title><g id="Слой_2" data-name="Слой 2"><g id="Слой_1-2" data-name="Слой 1"><path class="cls-1" d="M5,18.1H4.76l-.1.67,1.24-.57A1.66,1.66,0,0,1,6.38,18h.09a.28.28,0,0,1,.19.1v.1c-.13.13-.1.19.1.19,0,.19.16.29.48.29s.38.06.38.19V19L5.62,21a8.39,8.39,0,0,1-.91,1,1.82,1.82,0,0,0-.62,1v.19a2.08,2.08,0,0,0,.1.67c0,.13-.1.22-.29.29l-.57.19c0,.06-.06.1-.19.1s-.29,0-.29-.1a6.16,6.16,0,0,1-1.67-.86,12.07,12.07,0,0,1-1.19-1l.1-.86a6.07,6.07,0,0,1,1.38-1.9,18,18,0,0,1,2.14-1.71l.29-.19a.39.39,0,0,0,.29-.1.39.39,0,0,1,.29-.1q.57,0,.57.48Z"/><path class="cls-1" d="M49.91,9.81l-.19.48.38.67h.09a.78.78,0,0,0,.48-.29l2.57-1.48Q54.48,8.48,56,7.72A31.91,31.91,0,0,1,59.63,6l3.81-1.52q1-.19,1.86-.43A17.06,17.06,0,0,0,67,3.52a.66.66,0,0,0,.29,0,.67.67,0,0,1,.29,0,1,1,0,0,1,.86.38.9.9,0,0,1,.57.48.08.08,0,0,1,.09.1c0,.13-.13.22-.38.29L68.29,5q-2.09.57-4,1.29T60.39,7.81l-3.76,1.9a36.43,36.43,0,0,0-3.57,2.1l-3,1.9a.92.92,0,0,0-.48.43q-.1.24-.19.52a13,13,0,0,0-.29,1.48c-.06.48-.13.94-.19,1.38v1.14a1.83,1.83,0,0,1-.1.57,1.77,1.77,0,0,0-.1.57l-.1.57a.77.77,0,0,0-.09.33.78.78,0,0,1-.09.33v.67a5.24,5.24,0,0,0-.29,1l-.19,1q-.38,1.34-.67,2.57a23.28,23.28,0,0,1-.76,2.57A10.7,10.7,0,0,0,45.86,30c-.16.38-.33.82-.52,1.33a6.13,6.13,0,0,1-.52,1.9,15.65,15.65,0,0,0-.71,1.91v.29a4.08,4.08,0,0,1-.57,1.24q-.67,1.24-1.24,2.43A27,27,0,0,1,41,41.53,7.52,7.52,0,0,1,40.24,43l-.9,1.43A13.21,13.21,0,0,0,38,46.24a10.32,10.32,0,0,1-1.48,1.86c-.19.13-.29.25-.29.38A8.21,8.21,0,0,1,35,50.1q-.71.76-1.48,1.52-1,1.14-2.24,2.24t-2.43,2a4.52,4.52,0,0,0-1.19.81,5.22,5.22,0,0,1-1.1.81q-1,.57-1.81,1a18.19,18.19,0,0,1-1.9.81q-1.24.48-2.29.76a8.66,8.66,0,0,1-2.29.29,9.87,9.87,0,0,1-4.76-1.24q-.48-.29-.91-.57c-.29-.19-.59-.41-.91-.67A5.24,5.24,0,0,1,10.33,56a4.81,4.81,0,0,1-.24-2.48V53q.1-.48.19-.86a6.87,6.87,0,0,1,.29-.86q.48-1,1-2.1a13.68,13.68,0,0,1,1.33-2,14,14,0,0,1,1.19-2.1q.71-1,1.57-2.19a6.28,6.28,0,0,1,.76-1,9.43,9.43,0,0,0,.86-1.1A20.39,20.39,0,0,0,18.91,39a18.82,18.82,0,0,1,1.48-1.67q1.33-1.62,2.86-3.19t2.86-3.1a11.58,11.58,0,0,0,1.67-1.62q.71-.86,1.48-1.62l3-2.67q1.62-1.43,3.24-2.81t3.33-2.81q.76-.76,1.52-1.43A20.35,20.35,0,0,1,42,16.76a10,10,0,0,1,1.53-1.24l.38-.38a.65.65,0,0,0,.19-.48,1,1,0,0,0,.19-.57,2.8,2.8,0,0,1,.09-.67,8.33,8.33,0,0,1,.38-1.9,8.54,8.54,0,0,0,.38-1.91q.19-.76.38-1.57a15.43,15.43,0,0,0,.29-1.57.08.08,0,0,1,.1-.1.08.08,0,0,0,.09-.1c0-.06,0-.1,0-.1s0,0,0-.1-.06-.1-.19-.1h-.09l-.09.1-1.33.76q-1.62,1.34-3.1,2.48t-2.81,2.38l-7.72,6.57q-1.71,1.52-3.52,3t-3.71,2.67a12.87,12.87,0,0,1-1.14.86,4.21,4.21,0,0,1-1.33.57,4.71,4.71,0,0,1-1.43.29,2.08,2.08,0,0,1-1.33-.38q-.48-.19-1-.43a2.08,2.08,0,0,1-.76-.62.31.31,0,0,0-.19-.29l-.38-.19a4.74,4.74,0,0,1-1.33-2.48,7.86,7.86,0,0,1,0-.9,8.32,8.32,0,0,0,0-.9A16.11,16.11,0,0,1,15.1,17,18.42,18.42,0,0,1,16,14.67a14,14,0,0,1,.9-2q.52-1,1-2a2.53,2.53,0,0,1,.57-.86A2.54,2.54,0,0,0,19,9,15.2,15.2,0,0,0,20.34,7.1a10.69,10.69,0,0,1,1.29-1.76q.67-.76,1.19-1.48l1.1-1.48L26.67.1A1,1,0,0,0,27,0a1.06,1.06,0,0,1,.33,0,1.1,1.1,0,0,0,.76.19c.06,0,.1.06.1.19s0,.19.1.19h.09l.09-.1h.29A.17.17,0,0,1,29,.67a.76.76,0,0,1,.1.29c0,.06.06.13.19.19s.29.16.29.48l-.48,1q-.76,1.24-1.52,2.33a10.88,10.88,0,0,0-1.24,2.33c-.19.25-.37.51-.52.76a2.63,2.63,0,0,0-.33.76,16.74,16.74,0,0,0-1.1,1.67q-.52.91-1.1,1.76-.76,1.62-1.62,3.24a16.64,16.64,0,0,0-1.33,3.33A8.72,8.72,0,0,1,19.86,20a8.46,8.46,0,0,0-.43,1.19.4.4,0,0,0,0,.19.68.68,0,0,1,0,.29l.19.1L21,21.15A36,36,0,0,0,24.67,19q1.81-1.19,3.43-2.43l3.81-2.76c.06,0,.1,0,.1,0s0,0,.09,0l2.57-2,2.57-2q1.43-1,2.81-2.1t3-2.19a6.11,6.11,0,0,1,.67-.57,9.89,9.89,0,0,1,.86-.57.59.59,0,0,0,.33-.1L45.24,4a3.58,3.58,0,0,1,1.43-.29h.48a3.42,3.42,0,0,1,2.48,1.62l.29.76A18.16,18.16,0,0,1,49.91,9.81ZM11.71,51.05l-.1.1h.1ZM20,39.62a21.66,21.66,0,0,0-1.71,1.71l-.38.57a1.44,1.44,0,0,0-.19.57,2.29,2.29,0,0,0-.71.62,5.12,5.12,0,0,0-.43.71,28.56,28.56,0,0,0-1.86,2.43q-.81,1.19-1.57,2.43a15.22,15.22,0,0,0-1,2.38,1.69,1.69,0,0,0-.09.52,1.67,1.67,0,0,1-.09.52,6.73,6.73,0,0,0,.48-1q.48-1,1-2.14a9,9,0,0,1,1.24-2,14.26,14.26,0,0,1,1.24-1.76q.67-.81,1.24-1.67l.76-1A2.27,2.27,0,0,0,18.1,42c0-.19.16-.38.48-.57a10.05,10.05,0,0,0,.81-.9l.71-.9A3.72,3.72,0,0,0,21,38.29a1.69,1.69,0,0,0-.52.57C20.34,39.05,20.19,39.31,20,39.62ZM13.43,54.2a2.5,2.5,0,0,0-.1.76,1.89,1.89,0,0,0,.19.86,2.6,2.6,0,0,0,1,1.48,2.78,2.78,0,0,0,1.81.62,2.25,2.25,0,0,0,.43,0l.62-.14a13.5,13.5,0,0,0,3.14-1.62,14.59,14.59,0,0,0,2.38-1.48A19.94,19.94,0,0,0,24.76,53L28,50l3.24-3.81a1,1,0,0,0,.24-.33.92.92,0,0,1,.24-.33l1.14-1.62q.57-.57.57-.86,1-1.34,1.76-2.71l1.57-2.71,1.1-2.38a17.66,17.66,0,0,0,.9-2.48Q39.43,31,40.38,29a.56.56,0,0,0,.1-.38,3.6,3.6,0,0,1,.33-1c.16-.32.33-.7.52-1.14a1,1,0,0,1,.1-.48.59.59,0,0,1,.09-.33.59.59,0,0,0,.09-.33,1.07,1.07,0,0,0,0-.33,1,1,0,0,1,0-.33l.57-1.81a5.87,5.87,0,0,0,.52-1.48q.14-.71.33-1.48a.39.39,0,0,0,.1-.29.25.25,0,0,0-.29-.29h-.09l-.48.29-5.71,5-4.29,4q-1.33,1.33-2.57,2.67t-2.57,2.67q-1.34,1.33-2.57,2.81t-2.57,3q-1.33,1.62-2.71,3.38t-2.62,3.57q-.67,1-1.38,2.1A18.7,18.7,0,0,0,13.91,51a4.83,4.83,0,0,0-.24,1.19c0,.41-.08.87-.14,1.38Zm0-3.62h.1v-.19a.08.08,0,0,0-.1.1Zm.19-.38A3.24,3.24,0,0,0,14.19,49a1.3,1.3,0,0,0-.57,1Zm3.62-5.81q-.57.19-.57.57a4.35,4.35,0,0,0-.76,1q-.29.52-.57,1.19l-.29.38A1.85,1.85,0,0,0,14.19,49a4.41,4.41,0,0,0,1-1.33.54.54,0,0,1,.19-.38,4.77,4.77,0,0,0,1.14-1.62.64.64,0,0,0,.14-.24,2.39,2.39,0,0,1,.14-.33,1.47,1.47,0,0,0,.48-.57,2.5,2.5,0,0,0,1-1.62q-.29.38-.57.71A2.83,2.83,0,0,0,17.24,44.39ZM17.72,15l.09-.1h-.09Zm.29-.67a.78.78,0,0,0,.19-.57C18.06,13.78,18,14,18,14.29Zm5.81-9.72a3.7,3.7,0,0,1-.52.76,5.88,5.88,0,0,0-.62.86q-1.14,1.62-2.19,3.29t-1.91,3.38a.63.63,0,0,1-.14.38,1.67,1.67,0,0,0-.24.48,1.06,1.06,0,0,0,.38-.38l.19-.38q.76-1.43,1.62-2.81a30.11,30.11,0,0,1,1.91-2.71A6,6,0,0,1,23,6.19c.29-.38.55-.76.81-1.14a1.75,1.75,0,0,1,.33-.43.66.66,0,0,0,.24-.43Zm-5.53,11a.64.64,0,0,0,.29-.57.32.32,0,0,0-.09.24A.52.52,0,0,1,18.29,15.53Zm0,27.34a.56.56,0,0,0,.48-.29v-.19a.5.5,0,0,0-.24.19A1.46,1.46,0,0,1,18.29,42.86Zm1-28.77a3.81,3.81,0,0,0,.29-.76,2.37,2.37,0,0,1,.48-.86Q21.72,9.72,23.53,7a63.49,63.49,0,0,1,3.91-5.33l.19-.38v-.1h-.19c-.13.13-.19.22-.19.29s-.06.16-.19.29a5.46,5.46,0,0,0-.86.86,11.81,11.81,0,0,1-.86,1,33.34,33.34,0,0,0-2,2.76q-.91,1.43-2,3-.57,1-1.29,2.19a21.41,21.41,0,0,0-1.29,2.38l-.19.57a1.57,1.57,0,0,0-.09.48A3.54,3.54,0,0,0,19.24,14.1Zm-.48,28.29q.38-.38.81-.86a9.18,9.18,0,0,0,.81-1,3.31,3.31,0,0,0-.9.86Q19.14,41.81,18.76,42.39ZM20.67,40c-.19.06-.29.16-.29.29,0-.06,0-.11.14-.14S20.67,40.07,20.67,40Zm0,0a.53.53,0,0,0,.48-.57A.89.89,0,0,0,20.67,40ZM21,38.29a1.16,1.16,0,0,0,.76-.67A.92.92,0,0,0,21,38.29Zm.19,1.14a.86.86,0,0,0,.57-.57v-.19a2.12,2.12,0,0,0-.29.33Zm.57-1.81a1.57,1.57,0,0,0,.38-.29,1.21,1.21,0,0,0,.29-.48C21.94,37.05,21.72,37.31,21.72,37.62Zm0,1a1.13,1.13,0,0,0,.76-.76C22,38.16,21.72,38.42,21.72,38.67ZM23,36.1q-.67.38-.67.76a1.44,1.44,0,0,0,.76-.67,3.8,3.8,0,0,0,.33-.38,3.3,3.3,0,0,1,.33-.38l-.1-.1A1.15,1.15,0,0,0,23,36.1Zm-.57,1.81c.32-.13.48-.29.48-.48C22.64,37.5,22.48,37.66,22.48,37.91Zm.38-27.72c.19-.19.29-.32.29-.38Zm.57-1a.37.37,0,0,0-.29.38A1.47,1.47,0,0,0,23.43,9.14Zm-.29,28.1a.75.75,0,0,0,.57-.76A.86.86,0,0,0,23.14,37.24Zm.57-28.48a.37.37,0,0,0-.29.38A.37.37,0,0,0,23.72,8.76Zm.19-.38a.38.38,0,0,0-.19.38C23.84,8.76,23.91,8.64,23.91,8.38Zm-.09,28c.32-.13.48-.32.48-.57A1.52,1.52,0,0,0,23.81,36.39ZM24.29,8.1c-.25,0-.38.1-.38.29C23.84,8.38,24,8.29,24.29,8.1Zm-.38,27.15a.69.69,0,0,0,.38-.67A.68.68,0,0,0,23.91,35.24Zm.57-27.53c-.13.13-.19.22-.19.29Zm.1-.29c0,.06,0,.1,0,.1s0,0,0,.1A.28.28,0,0,0,24.57,7.43Zm-.1,28.1c.25-.06.38-.19.38-.38A1.06,1.06,0,0,0,24.48,35.53ZM24.57,4a.27.27,0,0,0,.09-.19l.09-.19A.55.55,0,0,0,24.57,4Zm.09,3.24c.06,0,.09-.1.09-.29a.17.17,0,0,0-.19.19c0,.06,0,.1,0,.1s0,0,0,.1Zm0,27.05a1.16,1.16,0,0,0,.67-.67C24.89,33.69,24.67,33.91,24.67,34.29Zm.09-30.67A1.08,1.08,0,0,0,25.15,3,.51.51,0,0,0,24.76,3.62ZM26,5.24a.08.08,0,0,0-.09.1,4.83,4.83,0,0,0-1.14,1.52A3,3,0,0,0,26,5.24ZM25.15,35a4.61,4.61,0,0,1,.43-.38.52.52,0,0,0,.24-.38Q25.33,34.29,25.15,35Zm.38-1.52a1.56,1.56,0,0,0,.67-.76Q25.53,33.05,25.53,33.43ZM26.86,4.1A1.75,1.75,0,0,0,26,5.24,2.7,2.7,0,0,0,26.86,4.1Zm-.67,29.72c.32-.13.48-.32.48-.57l-.24.24A1.22,1.22,0,0,0,26.19,33.81Zm.48-1.43L27,32.1l.29-.29v-.19A.91.91,0,0,0,26.67,32.39Zm1-29.72a1.56,1.56,0,0,0-.57,1l-.1.29a.91.91,0,0,0,.38-.52A4.06,4.06,0,0,1,27.62,2.67Zm-.57,30.19c.44-.19.67-.41.67-.67Zm1.33-31h-.09a1.16,1.16,0,0,0-.67.76.62.62,0,0,0,.48-.33A1.27,1.27,0,0,1,28.38,1.9Zm-.76,29.34a1.16,1.16,0,0,1,.33-.38.59.59,0,0,0,.24-.48.8.8,0,0,0-.33.33A5.33,5.33,0,0,1,27.62,31.24Zm.48.57a2.14,2.14,0,0,1,.43-.33.47.47,0,0,0,.24-.43A1.11,1.11,0,0,0,28.1,31.81Zm.86-1.9.33-.33a1.1,1.1,0,0,0,.24-.43A.86.86,0,0,0,29,29.91Zm.48.48a2.82,2.82,0,0,0,.76-.67A1.61,1.61,0,0,0,29.43,30.38ZM30,28.77c.06,0,.16-.06.29-.19C30.16,28.7,30.07,28.77,30,28.77Zm.38-.38a1.45,1.45,0,0,0,.67-.76q-.57.29-.57.57Zm.67.57a.61.61,0,0,0,.38-.57A.77.77,0,0,0,31.05,29Zm2-3c-.32.19-.48.35-.48.48l.19-.19Zm-.48,1.43a3.56,3.56,0,0,0,.57-.67A1.2,1.2,0,0,0,32.57,27.34ZM34.19,46.2c-.13.13-.19.22-.19.29a.15.15,0,0,1,.09-.14A.16.16,0,0,0,34.19,46.2Zm.19-.38a18,18,0,0,0,1.81-2.1q.76-1,1.52-2.19T39,39.2q.57-1.19,1.24-2.43c.13-.32.22-.57.29-.76l.19-.57v-.29a.32.32,0,0,0-.09.24.53.53,0,0,1-.19.33c-.13.25-.24.49-.33.71a3.82,3.82,0,0,1-.33.62A10.58,10.58,0,0,0,38.48,39q-.48,1-1,1.81Q36.77,42,36.05,43.2a14.2,14.2,0,0,1-1.67,2.24,1.68,1.68,0,0,0-.19.76A.56.56,0,0,0,34.38,45.82Zm.38,2.1c0,.06,0,.1,0,.1s0,0,0,.1S34.77,48,34.77,47.91Zm1-1.33a1.1,1.1,0,0,0,.38-.38,1.69,1.69,0,0,1-.24.19C35.86,46.45,35.81,46.51,35.81,46.58Zm.38-22.76a.77.77,0,0,0-.19.57A.77.77,0,0,0,36.19,23.81Zm.29,21.91a18.13,18.13,0,0,0,2.86-4.1,4.29,4.29,0,0,0,.71-1.19q.24-.62.43-1.29a1.42,1.42,0,0,0-.29.38,5.13,5.13,0,0,1-.29.48,20.09,20.09,0,0,0-1.86,2.81,28.22,28.22,0,0,1-1.76,2.81.38.38,0,0,0-.09.29v.29c.13,0,.19,0,.19-.14A.75.75,0,0,1,36.48,45.72Zm0-4.29a1.41,1.41,0,0,0-.29.38A.37.37,0,0,0,36.48,41.43Zm.29-.38a.37.37,0,0,0-.29.38A.37.37,0,0,0,36.77,41.05Zm.29-.48a13.91,13.91,0,0,0,1.19-1.81q.52-1,1-1.9a.86.86,0,0,0,.1-.38,1.54,1.54,0,0,1,.1-.48.38.38,0,0,0-.1.29A18.84,18.84,0,0,0,38,38.39q-.57,1-1,2.1a.27.27,0,0,0-.1.19l-.1.29Zm3.62-1.52V39l-.19.19Zm.19-4.86.1.1v-.1Z"/><path class="cls-1" d="M93.25,9.81l-.19.48.38.67h.09a.78.78,0,0,0,.48-.29l2.57-1.48q1.24-.71,2.76-1.48A31.91,31.91,0,0,1,103,6l3.81-1.52q1-.19,1.86-.43a17.06,17.06,0,0,0,1.67-.52.66.66,0,0,0,.29,0,.67.67,0,0,1,.29,0,1,1,0,0,1,.86.38.9.9,0,0,1,.57.48.08.08,0,0,1,.09.1c0,.13-.13.22-.38.29l-.38.29q-2.09.57-4,1.29t-3.91,1.57L100,9.72a36.43,36.43,0,0,0-3.57,2.1l-3,1.9a.92.92,0,0,0-.48.43q-.1.24-.19.52a13,13,0,0,0-.29,1.48c-.06.48-.13.94-.19,1.38v1.14a1.83,1.83,0,0,1-.1.57,1.77,1.77,0,0,0-.1.57l-.1.57a.77.77,0,0,0-.09.33.78.78,0,0,1-.09.33v.67a5.24,5.24,0,0,0-.29,1l-.19,1q-.38,1.34-.67,2.57a23.28,23.28,0,0,1-.76,2.57A10.7,10.7,0,0,0,89.2,30c-.16.38-.33.82-.52,1.33a6.13,6.13,0,0,1-.52,1.9,15.65,15.65,0,0,0-.71,1.91v.29a4.08,4.08,0,0,1-.57,1.24q-.67,1.24-1.24,2.43a27,27,0,0,1-1.33,2.43A7.52,7.52,0,0,1,83.58,43l-.9,1.43a13.21,13.21,0,0,0-1.38,1.86,10.32,10.32,0,0,1-1.48,1.86c-.19.13-.29.25-.29.38a8.21,8.21,0,0,1-1.19,1.62q-.71.76-1.48,1.52-1,1.14-2.24,2.24t-2.43,2a4.52,4.52,0,0,0-1.19.81,5.22,5.22,0,0,1-1.1.81q-1,.57-1.81,1a18.19,18.19,0,0,1-1.9.81q-1.24.48-2.29.76a8.66,8.66,0,0,1-2.29.29,9.87,9.87,0,0,1-4.76-1.24q-.48-.29-.91-.57c-.29-.19-.59-.41-.91-.67A5.24,5.24,0,0,1,53.67,56a4.81,4.81,0,0,1-.24-2.48V53q.1-.48.19-.86a6.87,6.87,0,0,1,.29-.86q.48-1,1-2.1a13.68,13.68,0,0,1,1.33-2,14,14,0,0,1,1.19-2.1q.71-1,1.57-2.19a6.28,6.28,0,0,1,.76-1,9.43,9.43,0,0,0,.86-1.1A20.39,20.39,0,0,0,62.24,39a18.82,18.82,0,0,1,1.48-1.67q1.33-1.62,2.86-3.19t2.86-3.1a11.58,11.58,0,0,0,1.67-1.62q.71-.86,1.48-1.62l3-2.67q1.62-1.43,3.24-2.81t3.33-2.81q.76-.76,1.52-1.43a20.35,20.35,0,0,1,1.71-1.33,10,10,0,0,1,1.53-1.24l.38-.38a.65.65,0,0,0,.19-.48,1,1,0,0,0,.19-.57,2.8,2.8,0,0,1,.09-.67,8.33,8.33,0,0,1,.38-1.9,8.54,8.54,0,0,0,.38-1.91q.19-.76.38-1.57a15.43,15.43,0,0,0,.29-1.57.08.08,0,0,1,.1-.1.08.08,0,0,0,.09-.1c0-.06,0-.1,0-.1s0,0,0-.1-.06-.1-.19-.1H89l-.09.1-1.33.76q-1.62,1.34-3.1,2.48t-2.81,2.38l-7.72,6.57q-1.71,1.52-3.52,3t-3.71,2.67a12.87,12.87,0,0,1-1.14.86,4.21,4.21,0,0,1-1.33.57,4.71,4.71,0,0,1-1.43.29,2.08,2.08,0,0,1-1.33-.38q-.48-.19-1-.43a2.08,2.08,0,0,1-.76-.62.31.31,0,0,0-.19-.29l-.38-.19a4.74,4.74,0,0,1-1.33-2.48,7.86,7.86,0,0,1,0-.9,8.32,8.32,0,0,0,0-.9A16.11,16.11,0,0,1,58.43,17a18.42,18.42,0,0,1,.91-2.33,14,14,0,0,1,.9-2q.52-1,1-2a2.53,2.53,0,0,1,.57-.86A2.54,2.54,0,0,0,62.39,9,15.2,15.2,0,0,0,63.67,7.1,10.69,10.69,0,0,1,65,5.33q.67-.76,1.19-1.48l1.1-1.48L70,.1a1,1,0,0,0,.33,0,1.06,1.06,0,0,1,.33,0,1.1,1.1,0,0,0,.76.19c.06,0,.1.06.1.19s0,.19.1.19h.09l.09-.1h.29a.17.17,0,0,1,.19.19.76.76,0,0,1,.1.29c0,.06.06.13.19.19s.29.16.29.48l-.48,1q-.76,1.24-1.52,2.33a10.88,10.88,0,0,0-1.24,2.33c-.19.25-.37.51-.52.76a2.63,2.63,0,0,0-.33.76,16.74,16.74,0,0,0-1.1,1.67q-.52.91-1.1,1.76-.76,1.62-1.62,3.24a16.64,16.64,0,0,0-1.33,3.33A8.72,8.72,0,0,1,63.2,20a8.46,8.46,0,0,0-.43,1.19.4.4,0,0,0,0,.19.68.68,0,0,1,0,.29l.19.1,1.24-.57A36,36,0,0,0,68,19q1.81-1.19,3.43-2.43l3.81-2.76c.06,0,.1,0,.1,0s0,0,.09,0l2.57-2,2.57-2q1.43-1,2.81-2.1t3-2.19a6.11,6.11,0,0,1,.67-.57,9.89,9.89,0,0,1,.86-.57.59.59,0,0,0,.33-.1L88.58,4A3.58,3.58,0,0,1,90,3.71h.48A3.42,3.42,0,0,1,93,5.33l.29.76A18.16,18.16,0,0,1,93.25,9.81ZM55.05,51.05l-.1.1h.1Zm8.29-11.43a21.66,21.66,0,0,0-1.71,1.71l-.38.57a1.44,1.44,0,0,0-.19.57,2.29,2.29,0,0,0-.71.62,5.12,5.12,0,0,0-.43.71,28.56,28.56,0,0,0-1.86,2.43q-.81,1.19-1.57,2.43a15.22,15.22,0,0,0-1,2.38,1.69,1.69,0,0,0-.09.52,1.67,1.67,0,0,1-.09.52,6.73,6.73,0,0,0,.48-1q.48-1,1-2.14a9,9,0,0,1,1.24-2,14.26,14.26,0,0,1,1.24-1.76q.67-.81,1.24-1.67l.76-1a2.27,2.27,0,0,0,.29-.57c0-.19.16-.38.48-.57a10.05,10.05,0,0,0,.81-.9l.71-.9a3.72,3.72,0,0,0,.86-1.33,1.69,1.69,0,0,0-.52.57C63.67,39.05,63.53,39.31,63.34,39.62ZM56.77,54.2a2.5,2.5,0,0,0-.1.76,1.89,1.89,0,0,0,.19.86,2.6,2.6,0,0,0,1,1.48,2.78,2.78,0,0,0,1.81.62,2.25,2.25,0,0,0,.43,0l.62-.14a13.5,13.5,0,0,0,3.14-1.62,14.59,14.59,0,0,0,2.38-1.48A19.94,19.94,0,0,0,68.1,53l3.24-3,3.24-3.81a1,1,0,0,0,.24-.33.92.92,0,0,1,.24-.33l1.14-1.62q.57-.57.57-.86,1-1.34,1.76-2.71l1.57-2.71,1.1-2.38a17.66,17.66,0,0,0,.9-2.48Q82.77,31,83.72,29a.56.56,0,0,0,.1-.38,3.6,3.6,0,0,1,.33-1c.16-.32.33-.7.52-1.14a1,1,0,0,1,.1-.48.59.59,0,0,1,.09-.33.59.59,0,0,0,.09-.33,1.07,1.07,0,0,0,0-.33,1,1,0,0,1,0-.33l.57-1.81A5.87,5.87,0,0,0,86,21.29q.14-.71.33-1.48a.39.39,0,0,0,.1-.29.25.25,0,0,0-.29-.29H86l-.48.29-5.71,5-4.29,4Q74.2,29.91,73,31.24t-2.57,2.67q-1.34,1.33-2.57,2.81t-2.57,3q-1.33,1.62-2.71,3.38t-2.62,3.57q-.67,1-1.38,2.1A18.7,18.7,0,0,0,57.24,51,4.83,4.83,0,0,0,57,52.15c0,.41-.08.87-.14,1.38Zm0-3.62h.1v-.19a.08.08,0,0,0-.1.1ZM57,50.2A3.24,3.24,0,0,0,57.53,49a1.3,1.3,0,0,0-.57,1Zm3.62-5.81Q60,44.58,60,45a4.35,4.35,0,0,0-.76,1q-.29.52-.57,1.19l-.29.38A1.85,1.85,0,0,0,57.53,49a4.41,4.41,0,0,0,1-1.33.54.54,0,0,1,.19-.38,4.77,4.77,0,0,0,1.14-1.62.64.64,0,0,0,.14-.24,2.39,2.39,0,0,1,.14-.33,1.47,1.47,0,0,0,.48-.57,2.5,2.5,0,0,0,1-1.62q-.29.38-.57.71A2.83,2.83,0,0,0,60.58,44.39ZM61.05,15l.09-.1h-.09Zm.29-.67a.78.78,0,0,0,.19-.57C61.4,13.78,61.34,14,61.34,14.29Zm5.81-9.72a3.7,3.7,0,0,1-.52.76,5.88,5.88,0,0,0-.62.86q-1.14,1.62-2.19,3.29t-1.91,3.38a.63.63,0,0,1-.14.38,1.67,1.67,0,0,0-.24.48,1.06,1.06,0,0,0,.38-.38L62.1,13q.76-1.43,1.62-2.81a30.11,30.11,0,0,1,1.91-2.71,6,6,0,0,1,.71-1.24c.29-.38.55-.76.81-1.14a1.75,1.75,0,0,1,.33-.43.66.66,0,0,0,.24-.43Zm-5.53,11a.64.64,0,0,0,.29-.57.32.32,0,0,0-.09.24A.52.52,0,0,1,61.63,15.53Zm0,27.34a.56.56,0,0,0,.48-.29v-.19a.5.5,0,0,0-.24.19A1.46,1.46,0,0,1,61.63,42.86Zm1-28.77a3.81,3.81,0,0,0,.29-.76,2.37,2.37,0,0,1,.48-.86Q65.05,9.72,66.86,7a63.49,63.49,0,0,1,3.91-5.33L71,1.24v-.1h-.19c-.13.13-.19.22-.19.29s-.06.16-.19.29a5.46,5.46,0,0,0-.86.86,11.81,11.81,0,0,1-.86,1,33.34,33.34,0,0,0-2,2.76q-.91,1.43-2,3-.57,1-1.29,2.19a21.41,21.41,0,0,0-1.29,2.38l-.19.57a1.57,1.57,0,0,0-.09.48A3.54,3.54,0,0,0,62.58,14.1ZM62.1,42.39q.38-.38.81-.86a9.18,9.18,0,0,0,.81-1,3.31,3.31,0,0,0-.9.86Q62.48,41.81,62.1,42.39ZM64,40c-.19.06-.29.16-.29.29,0-.06,0-.11.14-.14S64,40.07,64,40Zm0,0a.53.53,0,0,0,.48-.57A.89.89,0,0,0,64,40Zm.29-1.71a1.16,1.16,0,0,0,.76-.67A.92.92,0,0,0,64.29,38.29Zm.19,1.14a.86.86,0,0,0,.57-.57v-.19a2.12,2.12,0,0,0-.29.33Zm.57-1.81a1.57,1.57,0,0,0,.38-.29,1.21,1.21,0,0,0,.29-.48C65.28,37.05,65.05,37.31,65.05,37.62Zm0,1a1.13,1.13,0,0,0,.76-.76C65.31,38.16,65.05,38.42,65.05,38.67Zm1.33-2.57q-.67.38-.67.76a1.44,1.44,0,0,0,.76-.67,3.8,3.8,0,0,0,.33-.38,3.3,3.3,0,0,1,.33-.38l-.1-.1A1.15,1.15,0,0,0,66.39,36.1Zm-.57,1.81c.32-.13.48-.29.48-.48C66,37.5,65.82,37.66,65.82,37.91Zm.38-27.72c.19-.19.29-.32.29-.38Zm.57-1a.37.37,0,0,0-.29.38A1.47,1.47,0,0,0,66.77,9.14Zm-.29,28.1a.75.75,0,0,0,.57-.76A.86.86,0,0,0,66.48,37.24Zm.57-28.48a.37.37,0,0,0-.29.38A.37.37,0,0,0,67.05,8.76Zm.19-.38a.38.38,0,0,0-.19.38C67.18,8.76,67.25,8.64,67.25,8.38Zm-.09,28c.32-.13.48-.32.48-.57A1.52,1.52,0,0,0,67.15,36.39ZM67.63,8.1c-.25,0-.38.1-.38.29C67.18,8.38,67.31,8.29,67.63,8.1Zm-.38,27.15a.69.69,0,0,0,.38-.67A.68.68,0,0,0,67.25,35.24Zm.57-27.53c-.13.13-.19.22-.19.29Zm.1-.29c0,.06,0,.1,0,.1s0,0,0,.1A.28.28,0,0,0,67.91,7.43Zm-.1,28.1c.25-.06.38-.19.38-.38A1.06,1.06,0,0,0,67.82,35.53ZM67.91,4A.27.27,0,0,0,68,3.81l.09-.19A.55.55,0,0,0,67.91,4ZM68,7.24c.06,0,.09-.1.09-.29a.17.17,0,0,0-.19.19c0,.06,0,.1,0,.1s0,0,0,.1Zm0,27.05a1.16,1.16,0,0,0,.67-.67C68.23,33.69,68,33.91,68,34.29ZM68.1,3.62A1.08,1.08,0,0,0,68.48,3,.51.51,0,0,0,68.1,3.62Zm1.24,1.62a.08.08,0,0,0-.09.1A4.83,4.83,0,0,0,68.1,6.86,3,3,0,0,0,69.34,5.24ZM68.48,35a4.61,4.61,0,0,1,.43-.38.52.52,0,0,0,.24-.38Q68.67,34.29,68.48,35Zm.38-1.52a1.56,1.56,0,0,0,.67-.76Q68.86,33.05,68.86,33.43ZM70.2,4.1a1.75,1.75,0,0,0-.86,1.14A2.7,2.7,0,0,0,70.2,4.1Zm-.67,29.72c.32-.13.48-.32.48-.57l-.24.24A1.22,1.22,0,0,0,69.53,33.81ZM70,32.39l.29-.29.29-.29v-.19A.91.91,0,0,0,70,32.39ZM71,2.67a1.56,1.56,0,0,0-.57,1l-.1.29a.91.91,0,0,0,.38-.52A4.06,4.06,0,0,1,71,2.67Zm-.57,30.19c.44-.19.67-.41.67-.67Zm1.33-31h-.09a1.16,1.16,0,0,0-.67.76.62.62,0,0,0,.48-.33A1.27,1.27,0,0,1,71.72,1.9ZM71,31.24a1.16,1.16,0,0,1,.33-.38.59.59,0,0,0,.24-.48.8.8,0,0,0-.33.33A5.33,5.33,0,0,1,71,31.24Zm.48.57a2.14,2.14,0,0,1,.43-.33.47.47,0,0,0,.24-.43A1.11,1.11,0,0,0,71.44,31.81Zm.86-1.9.33-.33a1.1,1.1,0,0,0,.24-.43A.86.86,0,0,0,72.29,29.91Zm.48.48a2.82,2.82,0,0,0,.76-.67A1.61,1.61,0,0,0,72.77,30.38Zm.57-1.62c.06,0,.16-.06.29-.19C73.5,28.7,73.4,28.77,73.34,28.77Zm.38-.38a1.45,1.45,0,0,0,.67-.76q-.57.29-.57.57Zm.67.57a.61.61,0,0,0,.38-.57A.77.77,0,0,0,74.39,29Zm2-3c-.32.19-.48.35-.48.48l.19-.19Zm-.48,1.43a3.56,3.56,0,0,0,.57-.67A1.2,1.2,0,0,0,75.91,27.34ZM77.53,46.2c-.13.13-.19.22-.19.29a.15.15,0,0,1,.09-.14A.16.16,0,0,0,77.53,46.2Zm.19-.38a18,18,0,0,0,1.81-2.1q.76-1,1.52-2.19t1.24-2.33q.57-1.19,1.24-2.43c.13-.32.22-.57.29-.76l.19-.57v-.29a.32.32,0,0,0-.09.24.53.53,0,0,1-.19.33c-.13.25-.24.49-.33.71a3.82,3.82,0,0,1-.33.62A10.58,10.58,0,0,0,81.82,39q-.48,1-1,1.81Q80.1,42,79.39,43.2a14.2,14.2,0,0,1-1.67,2.24,1.68,1.68,0,0,0-.19.76A.56.56,0,0,0,77.72,45.82Zm.38,2.1c0,.06,0,.1,0,.1s0,0,0,.1S78.1,48,78.1,47.91Zm1-1.33a1.1,1.1,0,0,0,.38-.38,1.69,1.69,0,0,1-.24.19C79.2,46.45,79.15,46.51,79.15,46.58Zm.38-22.76a.77.77,0,0,0-.19.57A.77.77,0,0,0,79.53,23.81Zm.29,21.91a18.13,18.13,0,0,0,2.86-4.1,4.29,4.29,0,0,0,.71-1.19q.24-.62.43-1.29a1.42,1.42,0,0,0-.29.38,5.13,5.13,0,0,1-.29.48,20.09,20.09,0,0,0-1.86,2.81,28.22,28.22,0,0,1-1.76,2.81.38.38,0,0,0-.09.29v.29c.13,0,.19,0,.19-.14A.75.75,0,0,1,79.82,45.72Zm0-4.29a1.41,1.41,0,0,0-.29.38A.37.37,0,0,0,79.82,41.43Zm.29-.38a.37.37,0,0,0-.29.38A.37.37,0,0,0,80.1,41.05Zm.29-.48a13.91,13.91,0,0,0,1.19-1.81q.52-1,1-1.9a.86.86,0,0,0,.1-.38,1.54,1.54,0,0,1,.1-.48.38.38,0,0,0-.1.29,18.84,18.84,0,0,0-1.33,2.1q-.57,1-1,2.1a.27.27,0,0,0-.1.19l-.1.29ZM84,39.05V39l-.19.19Zm.19-4.86.1.1v-.1Z"/><path class="cls-1" d="M113.15,18.1h-.29l-.1.67,1.24-.57a1.66,1.66,0,0,1,.48-.19h.09a.28.28,0,0,1,.19.1v.1c-.13.13-.1.19.1.19,0,.19.16.29.48.29s.38.06.38.19V19l-2,1.91a8.39,8.39,0,0,1-.91,1,1.82,1.82,0,0,0-.62,1v.19a2.08,2.08,0,0,0,.1.67c0,.13-.1.22-.29.29l-.57.19c0,.06-.06.1-.19.1s-.29,0-.29-.1a6.16,6.16,0,0,1-1.67-.86,12.07,12.07,0,0,1-1.19-1l.1-.86a6.07,6.07,0,0,1,1.38-1.9,18,18,0,0,1,2.14-1.71l.29-.19a.39.39,0,0,0,.29-.1.39.39,0,0,1,.29-.1q.57,0,.57.48Z"/></g></g></svg>