<svg enable-background="new 0 0 60 60" viewBox="0 0 60 60" xmlns="http://www.w3.org/2000/svg"><path d="m34 32h-8c-1.103 0-2-.897-2-2v-3.26c0-.238-.086-.47-.24-.651l-2.266-2.643c-2.253-2.628-3.494-5.983-3.494-9.446 0-6.617 5.383-12 12-12s12 5.383 12 12c0 3.463-1.241 6.818-3.495 9.446l-2.264 2.643c-.155.182-.241.413-.241.651v3.26c0 1.103-.897 2-2 2zm-4-28c-5.514 0-10 4.486-10 10 0 2.986 1.07 5.879 3.013 8.146l2.266 2.643c.464.542.721 1.235.721 1.951v3.26h8v-3.26c0-.716.257-1.409.723-1.952l2.264-2.643c1.943-2.266 3.013-5.159 3.013-8.145 0-5.514-4.486-10-10-10z"/><path d="m25 26h7v2h-7z"/><path d="m29 44h2v14h-2z"/><path d="m7 9h5v2h-5z"/><path d="m10 1.735h2v4.53h-2z" transform="matrix(.7071 -.7071 .7071 .7071 .3934 8.9497)"/><path d="m8.735 15h4.53v2h-4.53z" transform="matrix(.7071 -.7071 .7071 .7071 -8.0919 12.4645)"/><path d="m28.105 22.309-1.414-1.414 4.895-4.895h-8l8.309-8.309 1.414 1.414-4.895 4.895h8z"/><path d="m48 9h5v2h-5z"/><path d="m46.735 3h4.53v2h-4.53z" transform="matrix(.7071 -.7071 .7071 .7071 11.5233 35.8198)"/><path d="m48 13.735h2v4.53h-2z" transform="matrix(.7071 -.7071 .7071 .7071 3.0381 39.3345)"/><path d="m30 59c-.254 0-.501-.047-.734-.14l-17.994-6.998c-.775-.305-1.272-1.035-1.272-1.862v-9.029h2v9.029l17.996 6.999 18.004-6.998v-9.03h2v9.029c0 .83-.5 1.563-1.274 1.864l-18.001 7c-.237.091-.479.136-.725.136z"/><path d="m30 39.065-19.346-7.127.692-1.876 18.654 6.873 18.654-6.873.692 1.876z"/><path d="m10.71 28.289h10.392v2h-10.392z" transform="matrix(.9443 -.3291 .3291 .9443 -8.7527 6.866)"/><path d="m43.094 24.093h2v10.392h-2z" transform="matrix(.3293 -.9442 .9442 .3293 1.9189 61.2796)"/><path d="m22 47c-.296 0-.581-.063-.848-.188l-14.998-6.999c-.701-.328-1.154-1.04-1.154-1.813 0-.436.138-.851.398-1.199l4.318-5.757-3.233-3.74c-.312-.367-.483-.828-.483-1.304 0-.842.533-1.6 1.326-1.884l9.137-3.263.672 1.883-9.135 3.263 4.283 4.957-5.284 7.044 15.001 7 7.273-7.688 1.453 1.375-7.273 7.687c-.373.397-.903.626-1.453.626z"/><path d="m38 47c-.55 0-1.08-.229-1.455-.629l-7.271-7.684 1.453-1.375 7.273 7.687 15-6.999-5.283-7.044 4.286-4.961-9.138-3.259.672-1.883 9.135 3.263c.795.284 1.328 1.042 1.328 1.884 0 .476-.171.937-.48 1.299l-3.236 3.745 4.317 5.757c.261.348.399.763.399 1.199 0 .773-.453 1.485-1.154 1.813l-15 7c-.265.124-.55.187-.846.187z"/></svg>