<svg enable-background="new 0 0 60 60" viewBox="0 0 60 60" xmlns="http://www.w3.org/2000/svg"><path d="m35.5 31c-.581 0-1.148-.233-1.556-.642l-8.303-8.303c-.413-.413-.641-.965-.641-1.555s.228-1.142.642-1.556l2.772-2.772c.744-.745 1.775-1.172 2.828-1.172h5.172l4.586 4.586v5.172c0 1.053-.427 2.084-1.172 2.828l-2.772 2.772c-.414.414-.966.642-1.556.642zm-4.258-14c-.526 0-1.042.214-1.414.586l-2.772 2.772c-.037.038-.056.085-.056.142 0 .039.01.096.056.142l8.303 8.303c.051.051.12.055.141.055.086 0 .128-.042.142-.056l2.772-2.772c.372-.372.586-.888.586-1.414v-4.344l-3.414-3.414z"/><path d="m40.707 20.707-1.414-1.414 2.172-2.172c.34-.34.535-.811.535-1.293 0-1.008-.82-1.828-1.828-1.828-.481 0-.953.195-1.293.535l-2.172 2.172-1.414-1.414 2.172-2.172c.723-.723 1.684-1.121 2.707-1.121 2.11 0 3.828 1.718 3.828 3.828 0 1.022-.398 1.984-1.121 2.707z"/><path d="m51.484 48.347-1.875-.694 5.57-15.06-13.886-13.886 1.414-1.414 14.792 14.792z"/><path d="m58 54h-14v-4c0-1.654 1.346-3 3-3h8c1.654 0 3 1.346 3 3zm-12-2h10v-2c0-.552-.448-1-1-1h-8c-.552 0-1 .448-1 1z"/><path d="m37 47h-32c-1.654 0-3-1.346-3-3v-22c0-1.654 1.346-3 3-3h18v2h-18c-.552 0-1 .448-1 1v22c0 .552.448 1 1 1h32c .552 0 1-.448 1-1v-12h2v12c0 1.654-1.346 3-3 3z"/><path d="m12.869 48.5h7.202v2h-7.202z" transform="matrix(.2354 -.9719 .9719 .2354 -35.5159 53.8548)"/><path d="m24.53 45.899h2v7.202h-2z" transform="matrix(.9719 -.2353 .2353 .9719 -10.9286 7.3953)"/><path d="m13 52h16v2h-16z"/><path d="m2 56h50v2h-50z"/><path d="m54 56h4v2h-4z"/><path d="m15 7h4v2h-4z"/><path d="m23 7h4v2h-4z"/><path d="m20 10h2v4h-2z"/><path d="m20 2h2v4h-2z"/><path d="m46 10h5v2h-5z"/><path d="m55 10h5v2h-5z"/><path d="m52 13h2v5h-2z"/><path d="m52 4h2v5h-2z"/><path d="m3 39h36v2h-36z"/></svg>